<svg width="449" height="195" viewBox="0 0 449 195" fill="none" xmlns="http://www.w3.org/2000/svg">
<path fill-rule="evenodd" clip-rule="evenodd" d="M431.104 1.54758C416.15 9.53058 402.711 31.9196 389.745 70.4556C385.094 84.2786 383.154 92.6526 381.541 105.867C380.218 116.707 379.275 118.952 373.936 123.968C368.582 128.998 365.55 130.867 362.742 130.867C360.416 130.867 360.345 130.663 360.879 125.488C361.367 120.762 365.226 108.314 374.043 83.0206C378.171 71.1796 377.119 66.9596 370.395 68.3896C365.57 69.4156 363.946 71.3266 361.615 78.7246C359.127 86.6206 357.485 91.0736 350.606 108.585C343.651 126.289 336.046 134.968 331.091 130.856C327.999 128.29 329.644 120.229 337.617 98.8666C345.958 76.5196 345.884 76.7766 344.738 74.2616C343.036 70.5256 336.155 71.4106 332.935 75.7796C331.888 77.2006 331.514 77.1306 329.37 75.1166C323.203 69.3226 310.263 74.0916 297.604 86.8236C284.079 100.427 278.298 119.246 286.975 121.424C291.08 122.454 293.349 120.221 297.969 110.6C304.423 97.1616 315.382 85.8666 321.967 85.8666C334.476 85.8666 312.135 126.992 297.123 131.6C288.501 134.246 284.853 129.162 275.137 100.962C267.579 79.0256 263.656 72.9366 257.05 72.8886C251.942 72.8516 248.201 77.5776 236.093 99.3666C223.476 122.072 216.788 130.867 212.139 130.867C208.169 130.867 212.098 116.378 222.036 94.3666C223.277 91.6166 225.151 87.3826 226.199 84.9576C227.247 82.5336 229.709 76.9196 231.671 72.4836L235.238 64.4166L267.278 64.7376C301.069 65.0756 309.943 64.3986 321.104 60.6346C331.1 57.2626 334.604 54.6096 334.604 50.4136C334.604 45.9886 329.99 44.6576 322.597 46.9496C310.621 50.6626 296.133 52.8666 283.691 52.8676C275.793 52.8696 242.648 50.9166 241.883 50.4056C241.761 50.3236 243.473 46.0566 245.686 40.9226C247.9 35.7876 249.476 30.9746 249.189 30.2266C248.487 28.3996 242.223 28.4786 238.246 30.3666C234.734 32.0326 233.908 33.1586 228.957 43.0226L225.523 49.8666L215.313 49.8726C197.508 49.8826 186.371 53.0436 182.777 59.1056C181.294 61.6086 181.291 61.9826 182.742 63.4336C184.16 64.8506 186.186 64.9006 201.586 63.8966C211.077 63.2776 219.048 62.9766 219.299 63.2286C219.55 63.4796 218.337 66.9886 216.603 71.0256C210.314 85.6716 204.187 86.6356 196.495 74.1906C194.169 70.4266 190.587 69.0976 187.078 70.6966C184.102 72.0526 182.278 75.6786 180.707 83.3666C179.57 88.9306 174.626 102.742 172.115 107.367C164.078 122.173 155.864 131.867 151.357 131.867C149.102 131.867 148.496 131.237 147.477 127.837C145.568 121.465 147.687 112.901 155.086 97.0906C158.619 89.5426 162.075 81.2236 162.767 78.6046C163.935 74.1846 163.873 73.6916 161.912 71.7296C158.924 68.7416 154.949 69.0366 151.634 72.4916C150.069 74.1236 146.834 80.5446 144.151 87.3456C137.797 103.45 133.117 111.135 123.435 121.364C113.26 132.113 108.463 135.095 102.019 134.674C96.6151 134.322 94.2141 131.887 93.1651 125.694L92.5422 122.022L97.8881 120.912C106.516 119.121 115.549 114.293 121.936 108.059C132.514 97.7346 137.925 82.7196 133.899 74.8666C127.985 63.3336 110.34 66.7406 95.1041 82.3566C84.5701 93.1526 76.6041 110.152 76.6041 121.836C76.6041 126.22 69.9941 132.867 65.6331 132.867C60.9831 132.867 59.2802 130.365 60.0392 124.648C61.9322 110.378 82.3041 63.0976 99.1291 33.9286C106.146 21.7636 106.213 15.8666 99.3352 15.8666C92.8472 15.8666 82.8521 27.5126 76.7411 42.1926C75.0321 46.2976 71.9941 53.1916 69.9911 57.5116C67.9871 61.8316 65.5211 67.2786 64.5111 69.6166C62.4791 74.3196 62.0322 74.5646 59.5572 72.3236C56.7982 69.8276 51.2112 69.4386 45.3862 71.3376C25.9671 77.6686 5.39415 103.756 0.591152 128.137C-1.31085 137.791 1.37815 144.686 8.63915 148.766C12.0532 150.686 13.8442 151.017 18.9382 150.673C26.6942 150.149 31.3702 147.904 38.5502 141.256L44.2252 136.002L45.3962 140.378C46.7562 145.464 49.9052 148.804 53.5432 149.018C61.5542 149.489 66.8931 147.485 73.2601 141.617L77.7812 137.45L79.6702 139.908C80.7092 141.261 81.5701 142.686 81.5821 143.075C81.5941 143.464 83.7152 145.02 86.2942 146.531C90.1712 148.803 92.1232 149.269 97.5442 149.216C103 149.164 105.294 148.553 111.177 145.586C118.641 141.823 126.74 136.105 130.136 132.202C131.253 130.918 132.433 129.867 132.757 129.867C133.081 129.867 133.631 132.004 133.98 134.617C135.635 147.031 144.246 151.208 155.215 144.917C166.116 138.664 178.667 122.94 188.944 102.659L193.864 92.9496L196.684 94.4086C198.236 95.2106 201.077 95.8666 202.998 95.8666H206.491L203.51 103.096C192.106 130.75 193.265 146.06 206.879 147.594C212.732 148.254 218.425 145.553 226.38 138.341C233.892 131.531 239.35 124.051 247.355 109.594C252.083 101.055 253.555 99.1036 254.453 100.186C255.077 100.936 257.85 106.459 260.618 112.459C270.875 134.698 274.246 139.986 281.104 144.599C289.046 149.941 300.108 147.478 309.969 138.172C314.181 134.196 313.851 134.096 317.106 140.337C318.537 143.081 324.426 146.867 327.263 146.867C330.591 146.867 337.525 143.409 341.3 139.866C345.031 136.364 345.604 136.213 345.604 138.731C345.604 141.147 350.206 145.729 353.452 146.544C358.897 147.91 369.194 143.183 377.268 135.61C380.88 132.221 382.083 132.51 382.977 136.98C383.873 141.462 389.528 146.409 395.352 147.807C404.767 150.065 415.7 145.626 426.045 135.345C434.484 126.958 438.115 118.969 435.997 113.449C435.644 112.528 434.221 111.867 432.59 111.867C430.43 111.867 428.799 113.067 425.451 117.117C423.065 120.004 420.435 122.94 419.608 123.641C410.528 131.331 401.793 133.953 398.264 130.047C395.692 127.2 394.341 120.478 395.499 116.284C396.3 113.383 401.236 106.274 416.616 85.8666C429.934 68.1966 440.819 47.9126 445.532 31.9866C450.351 15.7036 449.358 6.12558 442.414 1.89258C438.461 -0.517424 435.162 -0.618425 431.104 1.54758ZM435.219 17.3056C435.931 19.1606 434.022 28.7016 431.406 36.3666C430.279 39.6666 426.693 47.6236 423.436 54.0486C416.435 67.8616 398.604 95.3136 398.604 92.2806C398.604 89.1586 404.214 69.8246 408.268 58.9736C415.455 39.7376 424.368 22.9266 429.803 18.3526C433.184 15.5076 434.436 15.2656 435.219 17.3056ZM378.061 32.7296C370.318 37.4516 366.708 45.8436 370.328 50.7066C377.104 59.8096 388.753 52.5926 390.365 38.2936C390.761 34.7806 390.473 33.8876 388.496 32.5036C385.433 30.3586 381.821 30.4366 378.061 32.7296ZM120.931 84.0206C122.546 86.5846 116.599 97.8106 111.348 102.112C106.614 105.99 95.1591 112.089 94.2731 111.203C93.9591 110.889 94.5361 108.437 95.5551 105.754C99.6381 95.0076 106.037 86.9756 113.104 83.7246C117.688 81.6156 119.459 81.6826 120.931 84.0206ZM53.4042 86.0666C55.7352 88.3976 54.7092 94.8476 50.6192 103.577C41.8292 122.333 32.1922 132.867 23.8222 132.867C18.4212 132.867 17.2622 131.181 17.8092 124.119C18.3432 117.228 20.7492 111.779 27.4762 102.224C36.3922 89.5616 49.0262 81.6886 53.4042 86.0666ZM247.095 135.185C238.313 153.438 224.436 163.985 203.369 168.416C194.185 170.348 185.2 170.237 160.104 167.879C125.825 164.658 107.07 165.322 87.6041 170.445C70.8261 174.861 54.6042 184.348 54.6042 189.745C54.6042 192.306 57.7801 194.867 60.9581 194.867C62.4411 194.867 66.0052 194.01 68.8792 192.963C71.7532 191.916 77.2541 189.911 81.1041 188.507C90.6801 185.016 101.47 182.307 111.604 180.849C121.163 179.473 157.269 180.116 169.104 181.872C181.121 183.656 205.19 184.233 210.423 182.863C218.668 180.704 221.982 179.473 227.604 176.477C250.372 164.347 247.313 165.073 263.796 167.892C274.682 169.754 277.041 167.397 270.829 160.867C266.127 155.925 259.826 145.205 256.574 136.617C254.711 131.699 252.681 127.867 251.938 127.867C251.211 127.867 249.031 131.16 247.095 135.185Z" fill="black"/>
</svg>
